#!OML:ASF H:\Terrain\Walking\May29\JustinRory\Justin.ASF
:FULLY-SPECIFIED
:DEGREES
275
root 17.0081 9.70515 -6.72803 -0.598525 -85.755 -29.6224
lowerback 31.4361 9.75911 0.924848
upperback 10.3392 11.9463 2.15983
thorax -5.45499 5.35916 -2.22373
lowerneck -20.0123 -7.80742 -11.5524
upperneck 9.69019 -11.169 21.3803
head 8.35286 -4.09177 7.63898
rclavicle -1.04958e-013 7.39479e-014
rhumerus 34.0571 17.3829 -44.3229
rradius 43.9066
rwrist -4.44092
rhand -3.81255 8.64606
rfingers 7.12502
rthumb 21.934 -20.1305
lclavicle -1.04958e-013 7.39479e-014
lhumerus -4.10056 -30.3626 88.644
lradius 70.9798
lwrist -1.66773
lhand -8.14797 33.0924
lfingers 7.12502
lthumb 17.7665 62.3008
rfemur -58.3016 -18.39 16.4516
rtibia 73.2466
rfoot 18.2703 0.312823
rtoes 20.7488
lfemur -60.1849 4.12592 -10.9999
ltibia 72.6044
lfoot 21.4464 -6.5802
ltoes 12.9674
276
root 17.0251 9.71056 -6.7193 -2.77338 -85.7199 -27.6066
lowerback 31.6174 9.41073 0.755958
upperback 10.4458 11.4464 2.33554
thorax -5.501 5.10229 -1.78834
lowerneck -19.8332 -7.38438 -11.7316
upperneck 10.2694 -10.586 21.1383
head 8.39248 -3.82826 7.70077
rclavicle -5.9039e-014 3.18055e-014
rhumerus 33.5987 18.5779 -44.4758
rradius 45.4626
rwrist -4.47721
rhand -2.58835 8.90556
rfingers 7.12502
rthumb 23.109 -19.7286
lclavicle -5.9039e-014 3.18055e-014
lhumerus -4.49024 -30.1847 89.067
lradius 71.2048
lwrist -2.07595
lhand -6.93211 32.4129
lfingers 7.12502
lthumb 18.9361 61.5112
rfemur -58.0708 -18.6567 16.2418
rtibia 73.1069
rfoot 18.3972 0.416467
rtoes 21.2006
lfemur -59.9639 3.55927 -10.8609
ltibia 72.5647
lfoot 21.0738 -6.3259
ltoes 14.9519
277
root 17.0211 9.69769 -6.70628 3.78739 -85.7982 -34.3264
lowerback 31.6804 9.09457 1.2442
upperback 10.8108 11.1767 2.82957
thorax -5.13508 4.96426 -1.39392
lowerneck -19.8342 -7.21271 -12.6272
upperneck 10.3589 -10.1411 21.3619
head 8.40359 -3.63323 8.02285
rclavicle -6.5748e-014 8.0309e-014
rhumerus 33.3444 19.2636 -44.2744
rradius 46.9761
rwrist -4.47481
rhand -1.61205 9.28625
rfingers 7.12502
rthumb 24.0454 -19.2274
lclavicle -6.5748e-014 8.0309e-014
lhumerus -4.23886 -29.8155 89.8262
lradius 71.2326
lwrist -2.64192
lhand -5.45584 31.5595
lfingers 7.12502
lthumb 20.3554 60.5127
rfemur -57.8293 -18.7807 16.8294
rtibia 72.957
rfoot 18.324 0.994297
rtoes 19.5671
lfemur -59.8331 3.62438 -10.4749
ltibia 72.6066
lfoot 20.4101 -7.61373
ltoes 9.69182
278
root 17.0158 9.68623 -6.70438 6.52244 -86.0921 -37.0605
lowerback 31.8814 8.84701 1.68463
upperback 10.9653 10.954 2.80543
thorax -4.96437 4.85573 -1.58595
lowerneck -19.7062 -6.93912 -12.7904
upperneck 10.3514 -9.74183 21.4759
head 8.31956 -3.45093 8.16163
rclavicle 1.29955e-013 -9.54166e-014
rhumerus 32.6813 19.5687 -44.9387
rradius 48.2985
rwrist -4.42756
rhand -0.816444 10.1452
rfingers 7.12502
rthumb 24.8081 -18.2656
lclavicle 1.29955e-013 -9.54166e-014
lhumerus -3.94816 -29.8387 90.0075
lradius 71.2671
lwrist -3.139
lhand -4.29037 30.8747
lfingers 7.12502
lthumb 21.4751 59.7044
rfemur -57.8554 -18.6028 17.1179
rtibia 72.8938
rfoot 18.2857 1.3481
rtoes 18.6474
lfemur -59.8742 3.88103 -10.2359
ltibia 72.7079
lfoot 20.274 -7.50704
ltoes 9.96027
279
root 17.0324 9.69208 -6.70657 0.730111 -86.368 -31.2739
lowerback 31.8835 8.69964 1.34081
upperback 11.1631 10.6265 2.77193
thorax -4.80258 4.68612 -1.309
lowerneck -19.6499 -6.55977 -12.612
upperneck 10.726 -9.23932 21.0645
head 8.29551 -3.22627 8.07031
rclavicle -3.04638e-014 -1.59028e-014
rhumerus 31.9695 19.9841 -45.4983
rradius 49.8325
rwrist -4.39525
rhand 0.178616 10.4216
rfingers 7.12502
rthumb 25.7614 -17.8545
lclavicle -3.04638e-014 -1.59028e-014
lhumerus -3.79821 -29.6965 90.2504
lradius 71.3163
lwrist -3.51775
lhand -3.51501 30.5316
lfingers 7.12502
lthumb 22.2196 59.2745
rfemur -57.9588 -18.4065 16.6359
rtibia 72.8869
rfoot 18.4686 0.954165
rtoes 20.6659
lfemur -59.8205 3.77222 -10.3736
ltibia 72.7326
lfoot 20.3724 -6.3511
ltoes 14.4318
